<svg width="85" height="34" viewBox="0 0 85 34" fill="none" xmlns="http://www.w3.org/2000/svg">
<path d="M8.80831 1.83541C32.2183 0.665407 60.1583 0.185407 75.2283 1.83541C77.4583 1.23541 83.7583 2.79541 82.7283 9.33541C80.2683 12.1154 80.7883 19.5154 82.7283 24.3354C83.1483 28.9254 80.2583 28.6654 75.2283 31.8354C59.1083 30.7354 47.2783 32.8354 8.80831 31.8354C3.51831 34.3354 0.598313 28.2154 1.30831 24.3354C2.39831 17.4754 0.668313 16.1554 1.30831 9.33541C-2.29169 3.11541 6.06831 -0.344593 8.80831 1.83541Z" fill="#121212"/>
<path d="M8.80834 1.83541C37.0083 -0.23459 59.9083 2.24541 75.2283 1.83541M8.80834 1.83541C29.5383 2.57541 50.1183 0.76541 75.2283 1.83541M8.80834 1.83541C5.04834 0.32541 2.52834 4.97541 1.30834 9.33541M8.80834 1.83541C4.45834 3.40541 -0.261663 4.40541 1.30834 9.33541M75.2283 1.83541C80.7883 3.20541 84.6183 4.22541 82.7283 9.33541M75.2283 1.83541C79.8483 3.62541 84.4483 4.17541 82.7283 9.33541M82.7283 9.33541C82.8983 15.5754 82.6183 18.8654 82.7283 24.3354M82.7283 9.33541C82.2483 13.8754 82.0283 19.7054 82.7283 24.3354M82.7283 24.3354C83.7183 29.1854 79.1583 33.5854 75.2283 31.8354M82.7283 24.3354C82.3883 28.8254 80.1983 30.3954 75.2283 31.8354M75.2283 31.8354C52.6883 30.9754 32.7283 33.9654 8.80834 31.8354M75.2283 31.8354C54.3583 32.2854 34.4383 31.6754 8.80834 31.8354M8.80834 31.8354C4.94834 31.9754 3.18834 30.9854 1.30834 24.3354M8.80834 31.8354C3.18834 32.4854 1.73834 27.6654 1.30834 24.3354M1.30834 24.3354C2.39834 21.1254 1.43834 14.0154 1.30834 9.33541M1.30834 24.3354C0.968337 20.8654 1.17834 17.7354 1.30834 9.33541" stroke="white" stroke-width="2" stroke-linecap="round"/>
</svg>
