<svg width="98" height="43" viewBox="0 0 98 43" fill="none" xmlns="http://www.w3.org/2000/svg">
<path d="M11.32 1.66C34.18 -0.679999 50.94 0.890001 86.64 1.66C93.04 3.66 96.73 7.9 96.49 11.5C99.13 14.52 96.89 22.95 96.49 31.19C98.8 37.16 91.8 42.91 86.64 41.03C67.26 38.69 48.43 40.79 11.32 41.03C1.38001 42.55 4.71001 39.35 1.48001 31.19C0.330007 25.46 0.790007 19.14 1.48001 11.5C-0.899993 2.82 7.28001 -0.859999 11.32 1.66Z" fill="#121212"/>
<path d="M11.32 1.66C34.94 2.98 60.4 1.98 86.64 1.66M11.32 1.66C31.6 0.78 50.58 0.78 86.64 1.66M11.32 1.66C3.12002 3.48 1.96001 6.74 1.48001 11.5M11.32 1.66C4.54001 2.91 -0.419985 7.21 1.48001 11.5M86.64 1.66C92.06 1.94 97.16 4.13 96.49 11.5M86.64 1.66C92.63 0.32 97.76 6.71 96.49 11.5M96.49 11.5C95.59 17.37 95.73 20.68 96.49 31.19M96.49 11.5C97.1 15.22 96.92 20.54 96.49 31.19M96.49 31.19C96.68 38.77 92.25 40.62 86.64 41.03M96.49 31.19C95.76 36.14 95.49 39.12 86.64 41.03M86.64 41.03C71.09 41.17 57.58 39.6 11.32 41.03M86.64 41.03C58.02 40.54 29.2 41.31 11.32 41.03M11.32 41.03C6.24002 39.28 1.74001 36.77 1.48001 31.19M11.32 41.03C3.11001 39.51 2.72001 37.39 1.48001 31.19M1.48001 31.19C2.48001 26.22 0.0100148 20.42 1.48001 11.5M1.48001 31.19C2.30001 24.72 1.06001 17.21 1.48001 11.5" stroke="white" stroke-width="2" stroke-linecap="round"/>
<path d="M30.1122 13.0669L31.0122 13.0869C31.3722 13.0869 31.6522 13.1069 31.8522 13.1469L32.3922 13.2269C32.6722 13.2669 32.9189 13.3669 33.1322 13.5269C33.0255 14.0869 32.5855 14.3669 31.8122 14.3669L26.5122 14.2069C25.9389 14.2069 25.2522 14.2336 24.4522 14.2869C24.4789 15.7403 24.4922 17.7069 24.4922 20.1869C26.0122 20.0536 27.2789 19.9869 28.2922 19.9869C30.2522 19.9869 31.2322 20.1803 31.2322 20.5669C31.2322 21.0603 30.9255 21.3069 30.3122 21.3069C30.0989 21.3069 29.8655 21.2869 29.6122 21.2469C28.5989 21.1269 27.7189 21.0669 26.9722 21.0669C26.2255 21.0669 25.3922 21.1203 24.4722 21.2269C24.4455 21.6669 24.4122 22.3669 24.3722 23.3269C24.3322 24.2736 24.2989 24.9069 24.2722 25.2269C24.2589 25.5469 24.2455 25.7736 24.2322 25.9069C24.2189 26.0403 24.1989 26.2003 24.1722 26.3869C24.1589 26.5736 24.1322 26.7269 24.0922 26.8469C24.0655 26.9669 24.0255 27.0936 23.9722 27.2269C23.8922 27.4403 23.7455 27.6003 23.5322 27.7069C23.4655 27.7336 23.4055 27.7469 23.3522 27.7469C23.1789 27.7469 22.9855 27.6936 22.7722 27.5869C22.7722 27.4403 22.7722 27.0203 22.7722 26.3269C22.7722 25.6336 22.8322 24.1603 22.9522 21.9069C23.0722 19.6403 23.1322 17.9269 23.1322 16.7669C23.1322 15.6069 23.1055 14.6669 23.0522 13.9469C23.0522 13.6269 23.3789 13.4003 24.0322 13.2669C24.7522 13.1203 25.4389 13.0469 26.0922 13.0469C26.7589 13.0336 27.2655 13.0269 27.6122 13.0269L30.1122 13.0669ZM35.6422 25.4669L35.7022 26.6069C35.7022 26.9003 35.6155 27.1069 35.4422 27.2269C35.2822 27.3336 35.1155 27.3869 34.9422 27.3869C34.7822 27.3869 34.6155 27.3603 34.4422 27.3069C34.1489 25.7603 33.9222 23.8336 33.7622 21.5269C33.6155 19.2203 33.5289 17.9136 33.5022 17.6069C33.7022 17.4203 33.9089 17.3269 34.1222 17.3269C34.3489 17.3269 34.5489 17.3536 34.7222 17.4069C34.7755 17.7936 34.8155 18.6469 34.8422 19.9669C34.8689 21.2869 34.9022 22.1136 34.9422 22.4469C35.1289 21.3269 35.4622 20.2803 35.9422 19.3069C36.2089 18.7603 36.5555 18.3269 36.9822 18.0069C37.4222 17.6736 37.8889 17.5069 38.3822 17.5069C38.8889 17.5069 39.3489 17.7336 39.7622 18.1869C40.1889 18.6269 40.4022 19.0269 40.4022 19.3869C40.4022 19.5203 40.3222 19.6269 40.1622 19.7069C40.0022 19.7736 39.8222 19.8069 39.6222 19.8069C39.4355 19.8069 39.2889 19.7336 39.1822 19.5869C39.0755 19.4403 39.0022 19.2803 38.9622 19.1069C38.9222 18.9203 38.8355 18.7536 38.7022 18.6069C38.5689 18.4603 38.3889 18.3869 38.1622 18.3869C37.5622 18.3869 37.0489 18.9269 36.6222 20.0069C35.9689 21.6203 35.6422 23.4403 35.6422 25.4669ZM42.3389 23.3669C42.3122 23.6336 42.2989 23.8136 42.2989 23.9069C42.2989 24.7069 42.5389 25.3269 43.0189 25.7669C43.5122 26.2069 44.0922 26.4269 44.7589 26.4269C45.4256 26.4269 45.9656 26.3336 46.3789 26.1469C46.8056 25.9603 47.1122 25.7603 47.2989 25.5469C47.7789 24.9469 48.2189 24.6469 48.6189 24.6469C48.7656 24.6469 48.9389 24.6869 49.1389 24.7669C49.0056 25.4203 48.4989 26.0203 47.6189 26.5669C46.7522 27.1003 45.6589 27.3669 44.3389 27.3669C43.4056 27.3669 42.5989 27.0736 41.9189 26.4869C41.2522 25.8869 40.9189 25.0736 40.9189 24.0469C40.9189 23.0203 41.1189 22.0269 41.5189 21.0669C41.9322 20.0936 42.5189 19.2669 43.2789 18.5869C44.0522 17.8936 44.8322 17.5469 45.6189 17.5469C46.4189 17.5469 47.0589 17.7136 47.5389 18.0469C48.0322 18.3669 48.2789 18.8403 48.2789 19.4669C48.2789 20.6269 47.7589 21.5869 46.7189 22.3469C45.6922 23.0936 44.5989 23.4669 43.4389 23.4669C43.1322 23.4669 42.7656 23.4336 42.3389 23.3669ZM43.8589 22.7069C44.4856 22.7069 45.0456 22.5069 45.5389 22.1069C46.0322 21.7069 46.3789 21.2869 46.5789 20.8469C46.7922 20.4069 46.8989 20.0069 46.8989 19.6469C46.8989 19.2869 46.7589 18.9736 46.4789 18.7069C46.1989 18.4269 45.8722 18.2869 45.4989 18.2869C44.8322 18.2869 44.2122 18.7469 43.6389 19.6669C43.0789 20.5869 42.6789 21.5403 42.4389 22.5269C43.0256 22.6469 43.4989 22.7069 43.8589 22.7069ZM51.792 23.3669C51.7654 23.6336 51.752 23.8136 51.752 23.9069C51.752 24.7069 51.992 25.3269 52.472 25.7669C52.9654 26.2069 53.5454 26.4269 54.212 26.4269C54.8787 26.4269 55.4187 26.3336 55.832 26.1469C56.2587 25.9603 56.5654 25.7603 56.752 25.5469C57.232 24.9469 57.672 24.6469 58.072 24.6469C58.2187 24.6469 58.392 24.6869 58.592 24.7669C58.4587 25.4203 57.952 26.0203 57.072 26.5669C56.2054 27.1003 55.112 27.3669 53.792 27.3669C52.8587 27.3669 52.052 27.0736 51.372 26.4869C50.7054 25.8869 50.372 25.0736 50.372 24.0469C50.372 23.0203 50.572 22.0269 50.972 21.0669C51.3854 20.0936 51.972 19.2669 52.732 18.5869C53.5054 17.8936 54.2854 17.5469 55.072 17.5469C55.872 17.5469 56.512 17.7136 56.992 18.0469C57.4854 18.3669 57.732 18.8403 57.732 19.4669C57.732 20.6269 57.212 21.5869 56.172 22.3469C55.1454 23.0936 54.052 23.4669 52.892 23.4669C52.5854 23.4669 52.2187 23.4336 51.792 23.3669ZM53.312 22.7069C53.9387 22.7069 54.4987 22.5069 54.992 22.1069C55.4854 21.7069 55.832 21.2869 56.032 20.8469C56.2454 20.4069 56.352 20.0069 56.352 19.6469C56.352 19.2869 56.212 18.9736 55.932 18.7069C55.652 18.4269 55.3254 18.2869 54.952 18.2869C54.2854 18.2869 53.6654 18.7469 53.092 19.6669C52.532 20.5869 52.132 21.5403 51.892 22.5269C52.4787 22.6469 52.952 22.7069 53.312 22.7069ZM62.0052 26.0669C64.0452 25.8936 65.4718 25.8069 66.2852 25.8069C67.0985 25.8069 67.5052 26.0003 67.5052 26.3869C67.5052 26.6669 67.3518 26.8336 67.0452 26.8869C66.8052 26.9269 66.3052 26.9469 65.5452 26.9469C64.7985 26.9469 63.8452 26.9936 62.6852 27.0869C61.5385 27.1669 60.7652 27.2069 60.3652 27.2069C59.9785 27.2069 59.7852 27.0936 59.7852 26.8669C59.7852 26.5469 60.2052 26.0069 61.0452 25.2469L62.2452 24.0269C62.8452 23.4136 63.3318 22.9003 63.7052 22.4869C64.0785 22.0603 64.4452 21.5536 64.8052 20.9669C65.1785 20.3803 65.3652 19.8869 65.3652 19.4869C65.3652 18.9403 64.9052 18.6669 63.9852 18.6669C63.5452 18.6669 62.8985 18.7469 62.0452 18.9069C61.2052 19.0669 60.5718 19.1469 60.1452 19.1469C59.7185 19.1469 59.5052 19.0003 59.5052 18.7069C59.5052 18.3336 60.1052 18.0536 61.3052 17.8669C62.5185 17.6669 63.5585 17.5669 64.4252 17.5669C65.9585 17.5669 66.7252 18.0403 66.7252 18.9869C66.7252 19.6136 66.4452 20.3669 65.8852 21.2469C65.3385 22.1136 64.5718 23.1069 63.5852 24.2269C62.6118 25.3469 62.0852 25.9603 62.0052 26.0669ZM70.0538 23.3669C70.0271 23.6336 70.0138 23.8136 70.0138 23.9069C70.0138 24.7069 70.2538 25.3269 70.7338 25.7669C71.2271 26.2069 71.8071 26.4269 72.4738 26.4269C73.1404 26.4269 73.6804 26.3336 74.0938 26.1469C74.5204 25.9603 74.8271 25.7603 75.0138 25.5469C75.4938 24.9469 75.9338 24.6469 76.3338 24.6469C76.4804 24.6469 76.6538 24.6869 76.8538 24.7669C76.7204 25.4203 76.2138 26.0203 75.3338 26.5669C74.4671 27.1003 73.3738 27.3669 72.0538 27.3669C71.1204 27.3669 70.3138 27.0736 69.6338 26.4869C68.9671 25.8869 68.6338 25.0736 68.6338 24.0469C68.6338 23.0203 68.8338 22.0269 69.2338 21.0669C69.6471 20.0936 70.2338 19.2669 70.9938 18.5869C71.7671 17.8936 72.5471 17.5469 73.3338 17.5469C74.1338 17.5469 74.7738 17.7136 75.2538 18.0469C75.7471 18.3669 75.9938 18.8403 75.9938 19.4669C75.9938 20.6269 75.4738 21.5869 74.4338 22.3469C73.4071 23.0936 72.3138 23.4669 71.1538 23.4669C70.8471 23.4669 70.4804 23.4336 70.0538 23.3669ZM71.5738 22.7069C72.2004 22.7069 72.7604 22.5069 73.2538 22.1069C73.7471 21.7069 74.0938 21.2869 74.2938 20.8469C74.5071 20.4069 74.6138 20.0069 74.6138 19.6469C74.6138 19.2869 74.4738 18.9736 74.1938 18.7069C73.9138 18.4269 73.5871 18.2869 73.2138 18.2869C72.5471 18.2869 71.9271 18.7469 71.3538 19.6669C70.7938 20.5869 70.3938 21.5403 70.1538 22.5269C70.7404 22.6469 71.2138 22.7069 71.5738 22.7069Z" fill="white"/>
</svg>
