<svg width="98" height="43" viewBox="0 0 98 43" fill="none" xmlns="http://www.w3.org/2000/svg">
<path d="M11.32 1.66C34.18 -0.679999 50.94 0.890001 86.64 1.66C93.04 3.66 96.73 7.9 96.49 11.5C99.13 14.52 96.89 22.95 96.49 31.19C98.8 37.16 91.8 42.91 86.64 41.03C67.26 38.69 48.43 40.79 11.32 41.03C1.38001 42.55 4.71001 39.35 1.48001 31.19C0.330007 25.46 0.790007 19.14 1.48001 11.5C-0.899993 2.82 7.28001 -0.859999 11.32 1.66Z" fill="white"/>
<path d="M11.32 1.66C34.94 2.98 60.4 1.98 86.64 1.66M11.32 1.66C31.6 0.78 50.58 0.78 86.64 1.66M11.32 1.66C3.12002 3.48 1.96001 6.74 1.48001 11.5M11.32 1.66C4.54001 2.91 -0.419985 7.21 1.48001 11.5M86.64 1.66C92.06 1.94 97.16 4.13 96.49 11.5M86.64 1.66C92.63 0.32 97.76 6.71 96.49 11.5M96.49 11.5C95.59 17.37 95.73 20.68 96.49 31.19M96.49 11.5C97.1 15.22 96.92 20.54 96.49 31.19M96.49 31.19C96.68 38.77 92.25 40.62 86.64 41.03M96.49 31.19C95.76 36.14 95.49 39.12 86.64 41.03M86.64 41.03C71.09 41.17 57.58 39.6 11.32 41.03M86.64 41.03C58.02 40.54 29.2 41.31 11.32 41.03M11.32 41.03C6.24002 39.28 1.74001 36.77 1.48001 31.19M11.32 41.03C3.11001 39.51 2.72001 37.39 1.48001 31.19M1.48001 31.19C2.48001 26.22 0.0100148 20.42 1.48001 11.5M1.48001 31.19C2.30001 24.72 1.06001 17.21 1.48001 11.5" stroke="white" stroke-width="2" stroke-linecap="round"/>
<path d="M30.1122 12.0669L31.0122 12.0869C31.3722 12.0869 31.6522 12.1069 31.8522 12.1469L32.3922 12.2269C32.6722 12.2669 32.9189 12.3669 33.1322 12.5269C33.0255 13.0869 32.5855 13.3669 31.8122 13.3669L26.5122 13.2069C25.9389 13.2069 25.2522 13.2336 24.4522 13.2869C24.4789 14.7403 24.4922 16.7069 24.4922 19.1869C26.0122 19.0536 27.2789 18.9869 28.2922 18.9869C30.2522 18.9869 31.2322 19.1803 31.2322 19.5669C31.2322 20.0603 30.9255 20.3069 30.3122 20.3069C30.0989 20.3069 29.8655 20.2869 29.6122 20.2469C28.5989 20.1269 27.7189 20.0669 26.9722 20.0669C26.2255 20.0669 25.3922 20.1203 24.4722 20.2269C24.4455 20.6669 24.4122 21.3669 24.3722 22.3269C24.3322 23.2736 24.2989 23.9069 24.2722 24.2269C24.2589 24.5469 24.2455 24.7736 24.2322 24.9069C24.2189 25.0403 24.1989 25.2003 24.1722 25.3869C24.1589 25.5736 24.1322 25.7269 24.0922 25.8469C24.0655 25.9669 24.0255 26.0936 23.9722 26.2269C23.8922 26.4403 23.7455 26.6003 23.5322 26.7069C23.4655 26.7336 23.4055 26.7469 23.3522 26.7469C23.1789 26.7469 22.9855 26.6936 22.7722 26.5869C22.7722 26.4403 22.7722 26.0203 22.7722 25.3269C22.7722 24.6336 22.8322 23.1603 22.9522 20.9069C23.0722 18.6403 23.1322 16.9269 23.1322 15.7669C23.1322 14.6069 23.1055 13.6669 23.0522 12.9469C23.0522 12.6269 23.3789 12.4003 24.0322 12.2669C24.7522 12.1203 25.4389 12.0469 26.0922 12.0469C26.7589 12.0336 27.2655 12.0269 27.6122 12.0269L30.1122 12.0669ZM35.6422 24.4669L35.7022 25.6069C35.7022 25.9003 35.6155 26.1069 35.4422 26.2269C35.2822 26.3336 35.1155 26.3869 34.9422 26.3869C34.7822 26.3869 34.6155 26.3603 34.4422 26.3069C34.1489 24.7603 33.9222 22.8336 33.7622 20.5269C33.6155 18.2203 33.5289 16.9136 33.5022 16.6069C33.7022 16.4203 33.9089 16.3269 34.1222 16.3269C34.3489 16.3269 34.5489 16.3536 34.7222 16.4069C34.7755 16.7936 34.8155 17.6469 34.8422 18.9669C34.8689 20.2869 34.9022 21.1136 34.9422 21.4469C35.1289 20.3269 35.4622 19.2803 35.9422 18.3069C36.2089 17.7603 36.5555 17.3269 36.9822 17.0069C37.4222 16.6736 37.8889 16.5069 38.3822 16.5069C38.8889 16.5069 39.3489 16.7336 39.7622 17.1869C40.1889 17.6269 40.4022 18.0269 40.4022 18.3869C40.4022 18.5203 40.3222 18.6269 40.1622 18.7069C40.0022 18.7736 39.8222 18.8069 39.6222 18.8069C39.4355 18.8069 39.2889 18.7336 39.1822 18.5869C39.0755 18.4403 39.0022 18.2803 38.9622 18.1069C38.9222 17.9203 38.8355 17.7536 38.7022 17.6069C38.5689 17.4603 38.3889 17.3869 38.1622 17.3869C37.5622 17.3869 37.0489 17.9269 36.6222 19.0069C35.9689 20.6203 35.6422 22.4403 35.6422 24.4669ZM42.3389 22.3669C42.3122 22.6336 42.2989 22.8136 42.2989 22.9069C42.2989 23.7069 42.5389 24.3269 43.0189 24.7669C43.5122 25.2069 44.0922 25.4269 44.7589 25.4269C45.4256 25.4269 45.9656 25.3336 46.3789 25.1469C46.8056 24.9603 47.1122 24.7603 47.2989 24.5469C47.7789 23.9469 48.2189 23.6469 48.6189 23.6469C48.7656 23.6469 48.9389 23.6869 49.1389 23.7669C49.0056 24.4203 48.4989 25.0203 47.6189 25.5669C46.7522 26.1003 45.6589 26.3669 44.3389 26.3669C43.4056 26.3669 42.5989 26.0736 41.9189 25.4869C41.2522 24.8869 40.9189 24.0736 40.9189 23.0469C40.9189 22.0203 41.1189 21.0269 41.5189 20.0669C41.9322 19.0936 42.5189 18.2669 43.2789 17.5869C44.0522 16.8936 44.8322 16.5469 45.6189 16.5469C46.4189 16.5469 47.0589 16.7136 47.5389 17.0469C48.0322 17.3669 48.2789 17.8403 48.2789 18.4669C48.2789 19.6269 47.7589 20.5869 46.7189 21.3469C45.6922 22.0936 44.5989 22.4669 43.4389 22.4669C43.1322 22.4669 42.7656 22.4336 42.3389 22.3669ZM43.8589 21.7069C44.4856 21.7069 45.0456 21.5069 45.5389 21.1069C46.0322 20.7069 46.3789 20.2869 46.5789 19.8469C46.7922 19.4069 46.8989 19.0069 46.8989 18.6469C46.8989 18.2869 46.7589 17.9736 46.4789 17.7069C46.1989 17.4269 45.8722 17.2869 45.4989 17.2869C44.8322 17.2869 44.2122 17.7469 43.6389 18.6669C43.0789 19.5869 42.6789 20.5403 42.4389 21.5269C43.0256 21.6469 43.4989 21.7069 43.8589 21.7069ZM51.792 22.3669C51.7654 22.6336 51.752 22.8136 51.752 22.9069C51.752 23.7069 51.992 24.3269 52.472 24.7669C52.9654 25.2069 53.5454 25.4269 54.212 25.4269C54.8787 25.4269 55.4187 25.3336 55.832 25.1469C56.2587 24.9603 56.5654 24.7603 56.752 24.5469C57.232 23.9469 57.672 23.6469 58.072 23.6469C58.2187 23.6469 58.392 23.6869 58.592 23.7669C58.4587 24.4203 57.952 25.0203 57.072 25.5669C56.2054 26.1003 55.112 26.3669 53.792 26.3669C52.8587 26.3669 52.052 26.0736 51.372 25.4869C50.7054 24.8869 50.372 24.0736 50.372 23.0469C50.372 22.0203 50.572 21.0269 50.972 20.0669C51.3854 19.0936 51.972 18.2669 52.732 17.5869C53.5054 16.8936 54.2854 16.5469 55.072 16.5469C55.872 16.5469 56.512 16.7136 56.992 17.0469C57.4854 17.3669 57.732 17.8403 57.732 18.4669C57.732 19.6269 57.212 20.5869 56.172 21.3469C55.1454 22.0936 54.052 22.4669 52.892 22.4669C52.5854 22.4669 52.2187 22.4336 51.792 22.3669ZM53.312 21.7069C53.9387 21.7069 54.4987 21.5069 54.992 21.1069C55.4854 20.7069 55.832 20.2869 56.032 19.8469C56.2454 19.4069 56.352 19.0069 56.352 18.6469C56.352 18.2869 56.212 17.9736 55.932 17.7069C55.652 17.4269 55.3254 17.2869 54.952 17.2869C54.2854 17.2869 53.6654 17.7469 53.092 18.6669C52.532 19.5869 52.132 20.5403 51.892 21.5269C52.4787 21.6469 52.952 21.7069 53.312 21.7069ZM62.0052 25.0669C64.0452 24.8936 65.4718 24.8069 66.2852 24.8069C67.0985 24.8069 67.5052 25.0003 67.5052 25.3869C67.5052 25.6669 67.3518 25.8336 67.0452 25.8869C66.8052 25.9269 66.3052 25.9469 65.5452 25.9469C64.7985 25.9469 63.8452 25.9936 62.6852 26.0869C61.5385 26.1669 60.7652 26.2069 60.3652 26.2069C59.9785 26.2069 59.7852 26.0936 59.7852 25.8669C59.7852 25.5469 60.2052 25.0069 61.0452 24.2469L62.2452 23.0269C62.8452 22.4136 63.3318 21.9003 63.7052 21.4869C64.0785 21.0603 64.4452 20.5536 64.8052 19.9669C65.1785 19.3803 65.3652 18.8869 65.3652 18.4869C65.3652 17.9403 64.9052 17.6669 63.9852 17.6669C63.5452 17.6669 62.8985 17.7469 62.0452 17.9069C61.2052 18.0669 60.5718 18.1469 60.1452 18.1469C59.7185 18.1469 59.5052 18.0003 59.5052 17.7069C59.5052 17.3336 60.1052 17.0536 61.3052 16.8669C62.5185 16.6669 63.5585 16.5669 64.4252 16.5669C65.9585 16.5669 66.7252 17.0403 66.7252 17.9869C66.7252 18.6136 66.4452 19.3669 65.8852 20.2469C65.3385 21.1136 64.5718 22.1069 63.5852 23.2269C62.6118 24.3469 62.0852 24.9603 62.0052 25.0669ZM70.0538 22.3669C70.0271 22.6336 70.0138 22.8136 70.0138 22.9069C70.0138 23.7069 70.2538 24.3269 70.7338 24.7669C71.2271 25.2069 71.8071 25.4269 72.4738 25.4269C73.1404 25.4269 73.6804 25.3336 74.0938 25.1469C74.5204 24.9603 74.8271 24.7603 75.0138 24.5469C75.4938 23.9469 75.9338 23.6469 76.3338 23.6469C76.4804 23.6469 76.6538 23.6869 76.8538 23.7669C76.7204 24.4203 76.2138 25.0203 75.3338 25.5669C74.4671 26.1003 73.3738 26.3669 72.0538 26.3669C71.1204 26.3669 70.3138 26.0736 69.6338 25.4869C68.9671 24.8869 68.6338 24.0736 68.6338 23.0469C68.6338 22.0203 68.8338 21.0269 69.2338 20.0669C69.6471 19.0936 70.2338 18.2669 70.9938 17.5869C71.7671 16.8936 72.5471 16.5469 73.3338 16.5469C74.1338 16.5469 74.7738 16.7136 75.2538 17.0469C75.7471 17.3669 75.9938 17.8403 75.9938 18.4669C75.9938 19.6269 75.4738 20.5869 74.4338 21.3469C73.4071 22.0936 72.3138 22.4669 71.1538 22.4669C70.8471 22.4669 70.4804 22.4336 70.0538 22.3669ZM71.5738 21.7069C72.2004 21.7069 72.7604 21.5069 73.2538 21.1069C73.7471 20.7069 74.0938 20.2869 74.2938 19.8469C74.5071 19.4069 74.6138 19.0069 74.6138 18.6469C74.6138 18.2869 74.4738 17.9736 74.1938 17.7069C73.9138 17.4269 73.5871 17.2869 73.2138 17.2869C72.5471 17.2869 71.9271 17.7469 71.3538 18.6669C70.7938 19.5869 70.3938 20.5403 70.1538 21.5269C70.7404 21.6469 71.2138 21.7069 71.5738 21.7069Z" fill="#121212"/>
</svg>
