<svg width="83" height="83" viewBox="0 0 83 83" fill="none" xmlns="http://www.w3.org/2000/svg">
<path d="M1 1H81V81H1" fill="#121212"/>
<path d="M1 1C17.9472 1 34.8944 1 81 1M1 1C28.3038 1 55.5934 1 81 1M1 1C1 44.5708 1 62.7921 1 81M1 1C1 38.9376 1 59.9755 1 81M81 1C81 24.0002 81 47.0137 81 81M81 1C81 21.891 81 42.7821 81 81M81 81C50.4294 81 19.8588 81 1 81M81 81C61.5278 81 42.0556 81 1 81" stroke="#121212" stroke-width="2" stroke-linecap="round"/>
<path d="M32.4349 3.87044C40.3807 1.66208 52.0852 3.61201 59.6978 7.30044C67.3105 10.9654 74.8043 18.3657 78.111 25.9305C81.4416 33.4953 82.0839 44.7016 79.5622 52.7127C77.0643 60.7474 70.1177 69.5104 63.076 74.0915C56.058 78.6492 45.6382 80.7871 37.4069 80.0823C29.1757 79.401 19.6123 76.0415 13.7362 69.9567C7.8602 63.8955 2.81679 52.1724 2.1031 43.6444C1.4132 35.1164 4.22038 25.4607 9.4779 18.7651C14.7592 12.0461 29.4136 5.84386 33.7433 3.37708C38.0731 0.910296 35.1231 3.42407 35.4562 3.9879M34.6473 3.00119C42.7358 0.839817 55.3681 2.2729 62.624 6.3842C69.8798 10.4955 75.5893 19.5169 78.1824 27.669C80.7993 35.7977 80.8944 47.4033 78.2538 55.203C75.5893 63.0262 69.1186 70.2386 62.2909 74.5144C55.4633 78.7902 45.4478 81.9852 37.2642 80.8811C29.1044 79.7534 19.0889 74.303 13.2605 67.8423C7.4082 61.3582 2.38858 50.2929 2.26963 42.0938C2.17447 33.8712 7.4082 24.8968 12.5943 18.6007C17.7805 12.3045 29.7467 6.64263 33.3865 4.3403C37.0501 2.01448 34.4808 4.36379 34.4808 4.71619" stroke="white" stroke-width="2" stroke-linecap="round"/>
<path d="M44.131 2.79775C43.9591 6.68536 43.3454 22.9756 43.2472 27.0381M45.027 4.08914C45.1129 8.0709 44.8797 23.9711 44.5483 27.9663" stroke="white" stroke-width="2" stroke-linecap="round"/>
</svg>
