<svg width="92" height="92" viewBox="0 0 92 92" fill="none" xmlns="http://www.w3.org/2000/svg">
<path d="M1 1.00002H91V91H1" fill="#121212"/>
<path d="M1 1.00002C20.0656 1.00002 39.1312 1.00002 91 1.00002M1 1.00002C31.7168 1.00002 62.4176 1.00002 91 1.00002M1 1.00002C1 50.0172 1 70.5161 1 91M1 1.00002C1 43.6798 1 67.3474 1 91M91 1.00002C91 26.8752 91 52.7654 91 91M91 1.00002C91 24.5024 91 48.0049 91 91M91 91C56.6081 91 22.2161 91 1 91M91 91C69.0938 91 47.1876 91 1 91" stroke="#121212" stroke-width="2" stroke-linecap="round"/>
<path d="M37.9713 13.5961C44.7517 11.7117 54.7396 13.3756 61.2358 16.5231C67.732 19.6505 74.1267 25.9655 76.9485 32.4209C79.7906 38.8762 80.3387 48.4389 78.1868 55.2751C76.0552 62.1314 70.1275 69.6092 64.1185 73.5185C58.1298 77.4077 49.2381 79.2321 42.2141 78.6306C35.1901 78.0493 27.0292 75.1824 22.015 69.9901C17.0007 64.8178 12.697 54.8141 12.088 47.5368C11.4993 40.2595 13.8947 32.0199 18.3812 26.3063C22.8879 20.5727 35.3931 15.2801 39.0878 13.1751C42.7825 11.0701 40.2652 13.2152 40.5495 13.6964M39.8592 12.8544C46.7614 11.01 57.5411 12.2329 63.7328 15.7412C69.9245 19.2496 74.7966 26.9479 77.0094 33.9044C79.2424 40.8409 79.3236 50.7444 77.0703 57.4002C74.7966 64.0761 69.2748 70.2307 63.4486 73.8793C57.6223 77.528 49.0757 80.2545 42.0923 79.3123C35.1292 78.35 26.5826 73.6989 21.609 68.1858C16.615 62.6527 12.3316 53.2102 12.2301 46.2136C12.1489 39.197 16.615 31.5388 21.0406 26.166C25.4661 20.7932 35.6773 15.9618 38.7833 13.9971C41.9096 12.0124 39.7171 14.0171 39.7171 14.3179" stroke="white" stroke-width="2" stroke-linecap="round"/>
<path d="M47.5345 1.00002C47.2503 6.8669 46.2353 31.451 46.0729 37.5817M49.0165 2.94888C49.1586 8.95787 48.7729 32.9532 48.2247 38.9825" stroke="white" stroke-width="2" stroke-linecap="round"/>
</svg>
